<mxfile host="app.diagrams.net" modified="2023-08-08T02:03:24.716Z" agent="Mozilla/5.0 (Windows NT 10.0; Win64; x64) AppleWebKit/537.36 (KHTML, like Gecko) Chrome/114.0.0.0 Safari/537.36 Edg/114.0.1823.86" version="21.6.6" etag="9lRRJEdC3MxFId6dAdpr" type="github">
  <diagram name="第 1 页" id="mDxXt6ygkqnDyHhWjW9m">
    <mxGraphModel>
      <root>
        <mxCell id="0" />
        <mxCell id="1" parent="0" />
      </root>
    </mxGraphModel>
  </diagram>
</mxfile>
